<?xml version="1.0" encoding="iso-8859-1"?>
<!-- Uploaded to: SVG Repo, www.svgrepo.com, Generator: SVG Repo Mixer Tools -->
<svg height="800px" width="800px" version="1.1" id="Layer_1" xmlns="http://www.w3.org/2000/svg" xmlns:xlink="http://www.w3.org/1999/xlink" 
	 viewBox="0 0 512 512" xml:space="preserve">
<g transform="translate(1 1)">
	<path style="fill:#FFFFFF;" d="M50.2,197.096c-11.947,13.653-8.533,36.693-8.533,63.147v85.333
		c0,33.28,19.627,67.413,52.053,75.093c5.12,0.853,0.853,2.56-0.853,5.12c-5.12-2.56-11.093-4.267-16.213-5.12
		c-32.427-7.68-69.12-41.813-69.12-75.093v-85.333C7.533,233.789,29.72,211.603,50.2,197.096"/>
	<path style="fill:#FFA800;" d="M289.133,451.389c18.773,0,34.133-15.36,34.133-34.133c0-18.773-15.36-34.133-34.133-34.133H331.8
		c18.773,0,34.133-15.36,34.133-34.133c0-18.773-15.36-34.133-34.133-34.133h34.133c18.773,0,34.133-15.36,34.133-34.133
		s-15.36-34.133-34.133-34.133H331.8h136.533c18.773,0,34.133-15.36,34.133-34.133s-15.36-34.133-34.133-34.133H246.467l23.04-15.36
		c29.867-17.067,43.52-58.027,33.28-85.333c-0.853-4.267-3.413-6.827-5.12-10.24c-6.827-10.24-14.507-8.533-17.067-8.533
		s-52.053,48.64-102.4,76.8c0,0-40.96,24.747-68.267,51.2h-25.6c-42.667,0-51.2,34.133-51.2,76.8v85.333
		c0,33.28,28.16,67.413,60.587,75.093c7.68,1.707-6.827,5.12-0.853,10.24c8.533,7.68,29.867,17.067,59.733,17.067H289.133z"/>
	<path style="fill:#FFE100;" d="M263.533,451.389c18.773,0,34.133-15.36,34.133-34.133c0-18.773-15.36-34.133-34.133-34.133H306.2
		c18.773,0,34.133-15.36,34.133-34.133c0-18.773-15.36-34.133-34.133-34.133h34.133c18.773,0,34.133-15.36,34.133-34.133
		s-15.36-34.133-34.133-34.133H306.2h136.533c18.773,0,34.133-15.36,34.133-34.133s-15.36-34.133-34.133-34.133h-204.8l23.04-15.36
		c29.867-17.067,43.52-58.027,33.28-85.333c-1.707-4.267-3.413-6.827-5.12-10.24c-6.827-10.24-14.507-8.533-17.067-8.533
		s-52.053,48.64-102.4,76.8c0,0-40.107,24.747-68.267,51.2H75.8c-42.667,0-42.667,34.133-42.667,76.8v85.333
		c0,33.28,19.627,67.413,52.053,75.093c7.68,1.707-6.827,5.12-0.853,10.24c8.533,7.68,29.867,17.067,59.733,17.067H263.533z"/>
	<path d="M229.4,195.389c-3.413,0-5.973-1.707-7.68-5.12c-1.707-4.267,0-9.387,3.413-11.093l17.067-8.533
		c4.267-1.707,9.387,0,11.093,3.413c1.707,4.267,0,9.387-3.413,11.093l-17.067,8.533C231.96,195.389,231.107,195.389,229.4,195.389z
		"/>
	<path d="M331.8,255.123H229.4c-5.12,0-8.533-3.413-8.533-8.533s3.413-8.533,8.533-8.533h102.4c5.12,0,8.533,3.413,8.533,8.533
		S336.92,255.123,331.8,255.123z"/>
	<path d="M331.8,323.389h-93.867c-5.12,0-8.533-3.413-8.533-8.533c0-5.12,3.413-8.533,8.533-8.533H331.8
		c5.12,0,8.533,3.413,8.533,8.533C340.333,319.976,336.92,323.389,331.8,323.389z"/>
	<path d="M289.133,391.656H229.4c-5.12,0-8.533-3.413-8.533-8.533c0-5.12,3.413-8.533,8.533-8.533h59.733
		c5.12,0,8.533,3.413,8.533,8.533C297.667,388.243,294.253,391.656,289.133,391.656z"/>
	<path d="M109.933,452.243c-0.853,0-1.707,0-2.56-0.853c-20.48-6.827-24.747-25.6-29.867-44.373l-1.707-4.267
		c-0.853-4.267,1.707-9.387,5.973-10.24c4.267-0.853,9.387,1.707,10.24,5.973l0.853,5.12c5.12,18.773,7.68,29.013,18.773,32.427
		c4.267,1.707,6.827,5.973,5.12,11.093C116.76,449.683,113.347,452.243,109.933,452.243z"/>
	<path d="M84.333,229.523c-1.707,0-3.413-0.853-5.12-1.707c-3.413-3.413-4.267-8.533-0.853-11.947
		c4.267-5.12,6.827-9.387,10.24-14.507c4.267-6.827,9.387-12.8,15.36-19.627c3.413-3.413,8.533-3.413,11.947-0.853
		c3.413,3.413,3.413,8.533,0.853,11.947c-5.12,5.973-9.387,11.947-13.653,17.92c-3.413,5.12-6.827,10.24-11.947,15.36
		C89.453,228.669,86.893,229.523,84.333,229.523z"/>
	<path d="M289.133,459.923H152.6c-31.573,0-55.467-10.24-65.707-18.773c-3.413-3.413-11.093-5.973-21.333-8.533
		C29.72,424.083-1,385.683-1,348.989v-85.333c0-46.933,38.4-85.333,85.333-85.333h22.187c28.16-25.6,65.707-48.64,67.413-50.347
		c35.84-19.627,71.68-51.2,88.747-66.56c13.653-11.093,14.507-11.947,19.627-11.093c3.413,0,14.507-0.853,23.04,11.947
		c2.56,4.267,5.12,7.68,5.973,11.947c12.8,32.427-4.267,76.8-36.693,95.573h65.707c5.12,0,8.533,3.413,8.533,8.533
		c0,5.12-3.413,8.533-8.533,8.533h-93.867c-3.413,0-6.827-2.56-8.533-5.973c-0.853-3.413,0-7.68,3.413-9.387l23.04-15.36
		c28.16-16.213,38.4-52.907,30.72-75.093c-0.853-2.56-2.56-5.12-4.267-8.533c-3.413-5.12-5.12-5.12-7.68-5.12
		c-1.707,1.707-5.973,5.12-9.387,7.68c-17.92,15.36-54.613,47.787-91.307,68.267c0,0-40.107,24.747-66.56,50.347
		c-1.707,0.853-3.413,1.707-5.973,1.707h-25.6c-37.547,0-68.267,30.72-68.267,68.267v85.333c0,29.013,24.747,60.587,53.76,66.56
		c12.8,2.56,23.04,6.827,29.013,11.947c5.973,5.12,24.747,15.36,53.76,15.36h136.533c14.507,0,25.6-11.093,25.6-25.6
		c0-14.507-11.093-25.6-25.6-25.6c-5.12,0-8.533-3.413-8.533-8.533c0-5.12,3.413-8.533,8.533-8.533H331.8
		c14.507,0,25.6-11.093,25.6-25.6c0-14.507-11.093-25.6-25.6-25.6c-5.12,0-8.533-3.413-8.533-8.533c0-5.12,3.413-8.533,8.533-8.533
		h34.133c14.507,0,25.6-11.093,25.6-25.6s-11.093-25.6-25.6-25.6H331.8c-5.12,0-8.533-3.413-8.533-8.533s3.413-8.533,8.533-8.533
		h136.533c14.507,0,25.6-11.093,25.6-25.6c0-14.507-11.093-25.6-25.6-25.6H408.6c-5.12,0-8.533-3.413-8.533-8.533
		c0-5.12,3.413-8.533,8.533-8.533h59.733c23.893,0,42.667,18.773,42.667,42.667s-18.773,42.667-42.667,42.667h-68.267
		c5.12,6.827,8.533,16.213,8.533,25.6c0,23.893-18.773,42.667-42.667,42.667l0,0c5.12,6.827,8.533,16.213,8.533,25.6
		c0,23.893-18.773,42.667-42.667,42.667h-8.533c5.12,6.827,8.533,16.213,8.533,25.6C331.8,441.149,313.027,459.923,289.133,459.923z
		"/>
	<path d="M383,178.323c0-5.12-3.413-8.533-8.533-8.533c-5.12,0-8.533,3.413-8.533,8.533c0,5.12,3.413,8.533,8.533,8.533
		C379.587,186.856,383,183.443,383,178.323"/>
</g>
</svg>